<?xml version="1.0" standalone="no"?>
<!DOCTYPE svg PUBLIC "-//W3C//DTD SVG 20010904//EN"
 "http://www.w3.org/TR/2001/REC-SVG-20010904/DTD/svg10.dtd">
<svg version="1.0" xmlns="http://www.w3.org/2000/svg"
 width="980.000000pt" height="980.000000pt" viewBox="0 0 980.000000 980.000000"
 preserveAspectRatio="xMidYMid meet">

<g transform="translate(0.000000,980.000000) scale(0.100000,-0.100000)"
fill="#000000" stroke="none">
<path d="M4780 8523 c-411 -28 -788 -172 -1115 -428 -90 -71 -268 -250 -336
-340 -158 -207 -280 -454 -348 -705 -161 -600 -21 -1263 369 -1749 137 -171
344 -353 507 -449 35 -21 63 -39 63 -42 0 -3 -59 -25 -130 -49 -904 -304
-1646 -972 -2045 -1840 -191 -413 -297 -860 -312 -1301 -8 -234 7 -278 111
-326 l51 -24 3295 0 c2177 0 3307 4 3331 10 57 16 102 51 127 100 19 39 22 60
22 165 0 66 -5 172 -10 235 -99 1088 -699 2060 -1630 2642 -223 139 -467 254
-721 339 -71 24 -129 46 -129 49 0 3 28 21 63 42 219 128 454 357 612 594 219
329 327 690 327 1094 1 550 -207 1042 -603 1425 -115 111 -182 165 -309 247
-344 224 -785 339 -1190 311z m442 -422 c618 -134 1100 -611 1234 -1226 31
-140 42 -379 25 -519 -54 -429 -269 -808 -606 -1071 -574 -447 -1381 -447
-1950 0 -302 237 -505 564 -585 940 -27 128 -37 364 -21 501 80 685 607 1250
1286 1378 126 24 130 24 330 21 145 -3 213 -8 287 -24z m-77 -3561 c437 -38
870 -167 1230 -368 752 -419 1285 -1100 1505 -1926 35 -130 76 -364 86 -489
l7 -87 -3073 0 -3073 0 7 87 c22 267 113 638 221 893 52 124 166 342 236 453
502 791 1308 1306 2224 1421 209 27 435 32 630 16z"/>
</g>
</svg>
